<?xml version="1.0" encoding="UTF-8" standalone="no"?>
<!DOCTYPE svg PUBLIC "-//W3C//DTD SVG 1.1//EN"
 "http://www.w3.org/Graphics/SVG/1.1/DTD/svg11.dtd">
<!-- Generated by graphviz version 2.42.3 (0)
 -->
<!-- Pages: 1 -->
<svg width="393pt" height="304pt"
 viewBox="0.00 0.00 393.28 304.49" xmlns="http://www.w3.org/2000/svg" xmlns:xlink="http://www.w3.org/1999/xlink">
<g id="graph0" class="graph" transform="scale(1 1) rotate(0) translate(4 300.49)">
<polygon fill="white" stroke="transparent" points="-4,4 -4,-300.49 389.28,-300.49 389.28,4 -4,4"/>
<!-- bitarrin -->
<g id="node1" class="node">
<title>bitarrin</title>
<ellipse fill="none" stroke="black" cx="196.54" cy="-18" rx="36.29" ry="18"/>
<text text-anchor="middle" x="196.54" y="-14.3" font-family="Times,serif" font-size="14.00">bitarrin</text>
</g>
<!-- addnewelement -->
<g id="node2" class="node">
<title>addnewelement</title>
<ellipse fill="none" stroke="black" cx="66.29" cy="-148.24" rx="66.09" ry="18"/>
<text text-anchor="middle" x="66.29" y="-144.54" font-family="Times,serif" font-size="14.00">addnewelement</text>
</g>
<!-- bitarrin&#45;&#45;addnewelement -->
<g id="edge1" class="edge">
<title>bitarrin&#45;&#45;addnewelement</title>
<path fill="none" stroke="black" d="M180.31,-34.23C155.76,-58.78 109.36,-105.17 83.98,-130.56"/>
</g>
<!-- combinations -->
<g id="node3" class="node">
<title>combinations</title>
<ellipse fill="none" stroke="black" cx="326.78" cy="-148.24" rx="58.49" ry="18"/>
<text text-anchor="middle" x="326.78" y="-144.54" font-family="Times,serif" font-size="14.00">combinations</text>
</g>
<!-- bitarrin&#45;&#45;combinations -->
<g id="edge2" class="edge">
<title>bitarrin&#45;&#45;combinations</title>
<path fill="none" stroke="black" d="M212.77,-34.23C237.46,-58.92 284.23,-105.69 309.52,-130.98"/>
</g>
<!-- splitter -->
<g id="node4" class="node">
<title>splitter</title>
<ellipse fill="none" stroke="black" cx="196.54" cy="-278.49" rx="35.19" ry="18"/>
<text text-anchor="middle" x="196.54" y="-274.79" font-family="Times,serif" font-size="14.00">splitter</text>
</g>
<!-- addnewelement&#45;&#45;splitter -->
<g id="edge3" class="edge">
<title>addnewelement&#45;&#45;splitter</title>
<path fill="none" stroke="black" d="M83.86,-165.81C109.27,-191.22 155.93,-237.88 180.48,-262.43"/>
</g>
<!-- splitter&#45;&#45;combinations -->
<g id="edge4" class="edge">
<title>splitter&#45;&#45;combinations</title>
<path fill="none" stroke="black" d="M212.77,-262.26C237.46,-237.57 284.23,-190.8 309.52,-165.51"/>
</g>
</g>
</svg>
